<?xml version="1.0" standalone="no"?>
<!DOCTYPE svg PUBLIC "-//W3C//DTD SVG 20010904//EN"
 "http://www.w3.org/TR/2001/REC-SVG-20010904/DTD/svg10.dtd">
<svg version="1.0" xmlns="http://www.w3.org/2000/svg"
 width="512.000000pt" height="512.000000pt" viewBox="0 0 512.000000 512.000000"
 preserveAspectRatio="xMidYMid meet">

<g transform="translate(0.000000,512.000000) scale(0.100000,-0.100000)"
fill="#000000" stroke="none">
<path d="M765 4033 c-164 -86 -166 -300 -3 -384 36 -18 85 -19 1795 -19 1690
0 1760 1 1798 19 164 76 166 298 3 382 -36 18 -85 19 -1800 19 -1586 -1 -1766
-2 -1793 -17z"/>
<path d="M765 2753 c-164 -86 -166 -300 -3 -384 36 -18 74 -19 1155 -19 1067
0 1120 1 1158 19 164 76 166 298 3 382 -36 18 -74 19 -1160 19 -1003 -1 -1126
-2 -1153 -17z"/>
<path d="M765 1474 c-164 -88 -166 -301 -2 -385 36 -19 61 -19 635 -17 l598 3
37 25 c21 14 50 43 65 64 24 35 27 49 27 116 0 67 -3 81 -27 116 -15 21 -44
50 -65 64 l-37 25 -600 2 c-533 2 -604 1 -631 -13z"/>
</g>
</svg>
